<svg width="256" height="256" viewBox="0 0 256 256" fill="none" xmlns="http://www.w3.org/2000/svg">
  <rect width="256" height="256" rx="40" fill="#071018"/>
  <rect x="20" y="20" width="216" height="216" fill="url(#bg)" stroke="#203349" stroke-width="2"/>
  <rect x="40" y="48" width="176" height="26" fill="#0C1521" stroke="#2E4A68" stroke-width="2"/>
  <circle cx="58" cy="61" r="4" fill="#72D7AC"/>
  <circle cx="72" cy="61" r="4" fill="#5A9DFF"/>
  <circle cx="86" cy="61" r="4" fill="#EF728F"/>
  <rect x="40" y="88" width="82" height="54" fill="#0A121B" stroke="#35577E" stroke-width="2"/>
  <rect x="134" y="88" width="82" height="54" fill="#0A121B" stroke="#35577E" stroke-width="2"/>
  <rect x="40" y="154" width="82" height="54" fill="#0A121B" stroke="#35577E" stroke-width="2"/>
  <rect x="134" y="154" width="82" height="54" fill="#0A121B" stroke="#35577E" stroke-width="2"/>
  <path d="M58 106H94" stroke="#5A9DFF" stroke-width="5" stroke-linecap="square"/>
  <path d="M58 122H86" stroke="#72D7AC" stroke-width="5" stroke-linecap="square"/>
  <path d="M152 106H198" stroke="#FF9166" stroke-width="5" stroke-linecap="square"/>
  <path d="M152 122H184" stroke="#E8EEF7" stroke-opacity="0.82" stroke-width="5" stroke-linecap="square"/>
  <path d="M58 172H106" stroke="#E8EEF7" stroke-opacity="0.78" stroke-width="5" stroke-linecap="square"/>
  <path d="M58 188H90" stroke="#5A9DFF" stroke-width="5" stroke-linecap="square"/>
  <path d="M152 172H190" stroke="#72D7AC" stroke-width="5" stroke-linecap="square"/>
  <path d="M152 188H202" stroke="#E8EEF7" stroke-opacity="0.72" stroke-width="5" stroke-linecap="square"/>
  <path d="M176 36L224 84" stroke="#5A9DFF" stroke-opacity="0.72" stroke-width="8"/>
  <path d="M160 52L208 100" stroke="#5A9DFF" stroke-opacity="0.26" stroke-width="20"/>
  <defs>
    <linearGradient id="bg" x1="128" y1="20" x2="128" y2="236" gradientUnits="userSpaceOnUse">
      <stop stop-color="#0E1722"/>
      <stop offset="1" stop-color="#09121B"/>
    </linearGradient>
  </defs>
</svg>
